<svg xmlns="http://www.w3.org/2000/svg" xmlns:xlink="http://www.w3.org/1999/xlink" width="500" zoomAndPan="magnify" viewBox="0 0 375 374.999991" height="500" preserveAspectRatio="xMidYMid meet" version="1.0"><defs><g/><clipPath id="2e502387ec"><rect x="0" width="239" y="0" height="307"/></clipPath></defs><path fill="#545454" d="M 187.5 375 C 84.113281 375 0 290.886719 0 187.5 C 0 84.113281 84.113281 0 187.5 0 C 290.886719 0 375 84.113281 375 187.5 C 375 290.886719 290.886719 375 187.5 375 Z M 187.5 3.324219 C 85.945312 3.324219 3.324219 85.945312 3.324219 187.5 C 3.324219 289.054688 85.945312 371.675781 187.5 371.675781 C 289.054688 371.675781 371.675781 289.054688 371.675781 187.5 C 371.675781 85.945312 289.054688 3.324219 187.5 3.324219 Z M 187.5 3.324219 " fill-opacity="1" fill-rule="nonzero"/><g transform="matrix(1, 0, 0, 1, 69, 34)"><g clip-path="url(#2e502387ec)"><g fill="#545454" fill-opacity="1"><g transform="translate(6.900055, 220.785816)"><g><path d="M 225.671875 -156.796875 L 223.84375 -156.796875 C 218.238281 -156.796875 213.316406 -154.753906 209.078125 -150.671875 C 206.648438 -148.546875 204.90625 -145.894531 203.84375 -142.71875 L 166.125 -22.5 C 163.09375 -12.957031 161.425781 -4.546875 161.125 2.734375 L 159.078125 2.734375 L 112.71875 -127.265625 L 78.1875 -22.5 C 75.300781 -13.101562 73.707031 -4.691406 73.40625 2.734375 L 71.359375 2.734375 L 19.78125 -142.9375 C 17.957031 -147.488281 15.148438 -150.9375 11.359375 -153.28125 C 7.578125 -155.625 3.71875 -156.796875 -0.21875 -156.796875 L -2.03125 -156.796875 L -2.03125 -159.078125 L 48.40625 -159.078125 L 48.40625 -156.796875 L 46.359375 -156.796875 C 43.179688 -156.796875 40.796875 -155.773438 39.203125 -153.734375 C 37.617188 -151.691406 36.828125 -149.757812 36.828125 -147.9375 C 36.828125 -146.125 37.050781 -144.457031 37.5 -142.9375 L 72.046875 -32.265625 L 114.3125 -162.71875 L 116.359375 -162.484375 L 161.125 -36.8125 L 191.578125 -143.171875 C 192.035156 -144.835938 192.265625 -146.539062 192.265625 -148.28125 C 192.265625 -150.019531 191.503906 -151.875 189.984375 -153.84375 C 188.472656 -155.8125 186.125 -156.796875 182.9375 -156.796875 L 180.890625 -156.796875 L 180.890625 -159.078125 L 225.671875 -159.078125 Z M 225.671875 -156.796875 "/></g></g></g></g></g></svg>